<svg xmlns="http://www.w3.org/2000/svg" xmlns:xlink="http://www.w3.org/1999/xlink" width="500" zoomAndPan="magnify" viewBox="0 0 375 374.999991" height="500" preserveAspectRatio="xMidYMid meet" version="1.0"><defs><g/><clipPath id="4ad7bc9730"><path d="M 29.773438 33.722656 L 341.277344 33.722656 L 341.277344 345.226562 L 29.773438 345.226562 Z M 29.773438 33.722656 " clip-rule="nonzero"/></clipPath><clipPath id="e2e4194358"><path d="M 185.527344 33.722656 C 99.507812 33.722656 29.773438 103.453125 29.773438 189.472656 C 29.773438 275.492188 99.507812 345.226562 185.527344 345.226562 C 271.546875 345.226562 341.277344 275.492188 341.277344 189.472656 C 341.277344 103.453125 271.546875 33.722656 185.527344 33.722656 Z M 185.527344 33.722656 " clip-rule="nonzero"/></clipPath><clipPath id="241d609c6d"><path d="M 33.550781 37.5 L 337.300781 37.5 L 337.300781 341.25 L 33.550781 341.25 Z M 33.550781 37.5 " clip-rule="nonzero"/></clipPath><clipPath id="945769148e"><path d="M 136.070312 90.042969 L 238.820312 90.042969 L 238.820312 144 L 136.070312 144 Z M 136.070312 90.042969 " clip-rule="nonzero"/></clipPath><clipPath id="70e65847b5"><path d="M 173 121 L 199 121 L 199 187.542969 L 173 187.542969 Z M 173 121 " clip-rule="nonzero"/></clipPath></defs><g clip-path="url(#4ad7bc9730)"><g clip-path="url(#e2e4194358)"><path fill="#014652" d="M 29.773438 33.722656 L 341.277344 33.722656 L 341.277344 345.226562 L 29.773438 345.226562 Z M 29.773438 33.722656 " fill-opacity="1" fill-rule="nonzero"/></g></g><g clip-path="url(#241d609c6d)"><path fill="#c1ff72" d="M 185.519531 51.164062 C 109.292969 51.164062 47.21875 113.238281 47.21875 189.46875 C 47.21875 265.699219 109.230469 327.773438 185.519531 327.773438 C 261.8125 327.773438 323.824219 265.699219 323.824219 189.46875 C 323.824219 113.238281 261.75 51.164062 185.519531 51.164062 Z M 185.519531 325.382812 C 110.578125 325.382812 49.605469 264.410156 49.605469 189.46875 C 49.605469 114.527344 110.578125 53.554688 185.519531 53.554688 C 260.464844 53.554688 321.433594 114.527344 321.433594 189.46875 C 321.433594 264.410156 260.464844 325.382812 185.519531 325.382812 Z M 185.519531 37.5 C 101.753906 37.5 33.550781 105.703125 33.550781 189.46875 C 33.550781 273.234375 101.753906 341.4375 185.519531 341.4375 C 269.289062 341.4375 337.488281 273.234375 337.488281 189.46875 C 337.488281 105.703125 269.289062 37.5 185.519531 37.5 Z M 185.519531 338.863281 C 103.164062 338.863281 36.125 271.824219 36.125 189.46875 C 36.125 107.113281 103.164062 40.074219 185.519531 40.074219 C 267.878906 40.074219 334.917969 107.113281 334.917969 189.46875 C 334.917969 271.824219 267.878906 338.863281 185.519531 338.863281 Z M 185.519531 338.863281 " fill-opacity="1" fill-rule="nonzero"/></g><g clip-path="url(#945769148e)"><path fill="#c1ff72" d="M 187.5 90.054688 C 159.097656 90.054688 136.070312 113.078125 136.070312 141.484375 C 136.070312 141.621094 136.070312 141.761719 136.070312 141.890625 C 136.070312 142.609375 136.175781 143.316406 136.339844 143.988281 C 138.992188 118.078125 160.882812 97.859375 187.5 97.859375 C 214.140625 97.859375 236.007812 118.042969 238.660156 143.976562 C 238.835938 143.304688 238.925781 142.597656 238.925781 141.867188 C 238.925781 141.714844 238.925781 141.5625 238.925781 141.414062 C 238.894531 113.011719 215.914062 90.054688 187.5 90.054688 Z M 187.5 90.054688 " fill-opacity="1" fill-rule="nonzero"/></g><g clip-path="url(#70e65847b5)"><path fill="#c1ff72" d="M 192.402344 135.5 C 193.5625 130.261719 195.199219 125.589844 197.007812 121.507812 L 179.152344 137.96875 C 180.867188 144.808594 184.820312 164.589844 174.980469 185.269531 C 174.621094 186.023438 174.25 186.765625 173.867188 187.484375 L 198.953125 187.484375 C 194.570312 177.933594 187.382812 158.328125 192.402344 135.5 Z M 192.402344 135.5 " fill-opacity="1" fill-rule="nonzero"/></g><g fill="#c1ff72" fill-opacity="1"><g transform="translate(85.889069, 239.857895)"><g><path d="M 1.453125 -5.875 L 2.375 -5.875 C 2.488281 -5.125 2.707031 -4.445312 3.03125 -3.84375 C 3.363281 -3.25 3.773438 -2.742188 4.265625 -2.328125 C 4.753906 -1.910156 5.316406 -1.585938 5.953125 -1.359375 C 6.597656 -1.140625 7.296875 -1.03125 8.046875 -1.03125 C 9.285156 -1.03125 10.257812 -1.320312 10.96875 -1.90625 C 11.6875 -2.488281 12.046875 -3.28125 12.046875 -4.28125 C 12.046875 -4.695312 11.972656 -5.078125 11.828125 -5.421875 C 11.691406 -5.773438 11.457031 -6.113281 11.125 -6.4375 C 10.789062 -6.757812 10.34375 -7.078125 9.78125 -7.390625 C 9.226562 -7.710938 8.523438 -8.054688 7.671875 -8.421875 C 6.640625 -8.867188 5.773438 -9.300781 5.078125 -9.71875 C 4.378906 -10.132812 3.820312 -10.566406 3.40625 -11.015625 C 2.988281 -11.472656 2.691406 -11.953125 2.515625 -12.453125 C 2.335938 -12.960938 2.25 -13.546875 2.25 -14.203125 C 2.25 -14.960938 2.382812 -15.664062 2.65625 -16.3125 C 2.9375 -16.96875 3.328125 -17.53125 3.828125 -18 C 4.328125 -18.476562 4.914062 -18.847656 5.59375 -19.109375 C 6.28125 -19.367188 7.03125 -19.5 7.84375 -19.5 C 8.582031 -19.5 9.265625 -19.378906 9.890625 -19.140625 C 10.523438 -18.910156 11.171875 -18.539062 11.828125 -18.03125 L 12.46875 -19.15625 L 13.046875 -19.15625 L 13.328125 -14.171875 L 12.40625 -14.171875 C 12 -15.535156 11.414062 -16.550781 10.65625 -17.21875 C 9.90625 -17.882812 8.992188 -18.21875 7.921875 -18.21875 C 6.910156 -18.21875 6.101562 -17.96875 5.5 -17.46875 C 4.894531 -16.96875 4.59375 -16.296875 4.59375 -15.453125 C 4.59375 -15.046875 4.660156 -14.679688 4.796875 -14.359375 C 4.929688 -14.035156 5.148438 -13.726562 5.453125 -13.4375 C 5.753906 -13.144531 6.144531 -12.851562 6.625 -12.5625 C 7.101562 -12.269531 7.703125 -11.96875 8.421875 -11.65625 C 9.660156 -11.101562 10.6875 -10.585938 11.5 -10.109375 C 12.3125 -9.640625 12.957031 -9.164062 13.4375 -8.6875 C 13.925781 -8.207031 14.269531 -7.707031 14.46875 -7.1875 C 14.675781 -6.664062 14.78125 -6.078125 14.78125 -5.421875 C 14.78125 -4.585938 14.613281 -3.820312 14.28125 -3.125 C 13.945312 -2.425781 13.476562 -1.828125 12.875 -1.328125 C 12.269531 -0.828125 11.550781 -0.4375 10.71875 -0.15625 C 9.882812 0.113281 8.96875 0.25 7.96875 0.25 C 7.019531 0.25 6.164062 0.117188 5.40625 -0.140625 C 4.65625 -0.410156 3.882812 -0.863281 3.09375 -1.5 L 2.40625 -0.28125 L 1.828125 -0.28125 Z M 1.453125 -5.875 "/></g></g></g><g fill="#c1ff72" fill-opacity="1"><g transform="translate(109.986508, 239.857895)"><g><path d="M 6.5 -4.71875 C 6.5 -3.882812 6.53125 -3.226562 6.59375 -2.75 C 6.664062 -2.269531 6.796875 -1.894531 6.984375 -1.625 C 7.179688 -1.351562 7.457031 -1.175781 7.8125 -1.09375 C 8.164062 -1.007812 8.632812 -0.960938 9.21875 -0.953125 L 9.21875 0 L 1.125 0 L 1.125 -0.953125 C 1.707031 -0.960938 2.175781 -1.015625 2.53125 -1.109375 C 2.894531 -1.203125 3.175781 -1.375 3.375 -1.625 C 3.570312 -1.875 3.703125 -2.226562 3.765625 -2.6875 C 3.835938 -3.144531 3.875 -3.765625 3.875 -4.546875 L 3.875 -14.703125 C 3.875 -15.398438 3.84375 -15.976562 3.78125 -16.4375 C 3.726562 -16.894531 3.613281 -17.253906 3.4375 -17.515625 C 3.257812 -17.785156 3.003906 -17.972656 2.671875 -18.078125 C 2.335938 -18.191406 1.90625 -18.265625 1.375 -18.296875 L 1.375 -19.25 L 8.96875 -19.25 L 8.96875 -18.296875 C 8.4375 -18.285156 8.007812 -18.21875 7.6875 -18.09375 C 7.363281 -17.976562 7.113281 -17.78125 6.9375 -17.5 C 6.757812 -17.226562 6.640625 -16.851562 6.578125 -16.375 C 6.523438 -15.894531 6.5 -15.28125 6.5 -14.53125 Z M 6.5 -4.71875 "/></g></g></g><g fill="#c1ff72" fill-opacity="1"><g transform="translate(128.334859, 239.857895)"><g><path d="M 13.75 -4.46875 L 20.25 -19.25 L 25.84375 -19.25 L 25.84375 -18.296875 C 25.3125 -18.285156 24.882812 -18.21875 24.5625 -18.09375 C 24.238281 -17.976562 23.988281 -17.78125 23.8125 -17.5 C 23.632812 -17.226562 23.515625 -16.851562 23.453125 -16.375 C 23.398438 -15.894531 23.375 -15.28125 23.375 -14.53125 L 23.375 -4.71875 C 23.375 -3.882812 23.40625 -3.226562 23.46875 -2.75 C 23.539062 -2.269531 23.671875 -1.894531 23.859375 -1.625 C 24.054688 -1.351562 24.332031 -1.175781 24.6875 -1.09375 C 25.039062 -1.007812 25.507812 -0.960938 26.09375 -0.953125 L 26.09375 0 L 18 0 L 18 -0.953125 C 18.582031 -0.960938 19.050781 -1.015625 19.40625 -1.109375 C 19.769531 -1.203125 20.050781 -1.375 20.25 -1.625 C 20.445312 -1.875 20.578125 -2.226562 20.640625 -2.6875 C 20.710938 -3.144531 20.75 -3.765625 20.75 -4.546875 L 20.75 -16.15625 L 20.5 -16.15625 L 13.203125 0.25 L 12.65625 0.25 L 5.46875 -16.15625 L 5.375 -16.15625 L 5.375 -4.71875 C 5.375 -3.882812 5.40625 -3.226562 5.46875 -2.75 C 5.539062 -2.269531 5.671875 -1.894531 5.859375 -1.625 C 6.054688 -1.351562 6.332031 -1.175781 6.6875 -1.09375 C 7.039062 -1.007812 7.507812 -0.960938 8.09375 -0.953125 L 8.09375 0 L 1.125 0 L 1.125 -0.953125 C 1.707031 -0.960938 2.175781 -1.015625 2.53125 -1.109375 C 2.894531 -1.203125 3.175781 -1.375 3.375 -1.625 C 3.570312 -1.875 3.703125 -2.226562 3.765625 -2.6875 C 3.835938 -3.144531 3.875 -3.765625 3.875 -4.546875 L 3.875 -14.703125 C 3.875 -15.398438 3.84375 -15.976562 3.78125 -16.4375 C 3.726562 -16.894531 3.613281 -17.253906 3.4375 -17.515625 C 3.257812 -17.785156 3.003906 -17.972656 2.671875 -18.078125 C 2.335938 -18.191406 1.90625 -18.265625 1.375 -18.296875 L 1.375 -19.25 L 7.34375 -19.25 L 13.65625 -4.46875 Z M 13.75 -4.46875 "/></g></g></g><g fill="#c1ff72" fill-opacity="1"><g transform="translate(163.555531, 239.857895)"><g><path d="M 2.84375 -16.15625 C 2.59375 -16.582031 2.359375 -16.929688 2.140625 -17.203125 C 1.929688 -17.484375 1.710938 -17.707031 1.484375 -17.875 C 1.265625 -18.039062 1.03125 -18.148438 0.78125 -18.203125 C 0.53125 -18.265625 0.226562 -18.296875 -0.125 -18.296875 L -0.125 -19.25 L 7.75 -19.25 L 7.75 -18.296875 C 6.914062 -18.296875 6.328125 -18.234375 5.984375 -18.109375 C 5.640625 -17.984375 5.46875 -17.765625 5.46875 -17.453125 C 5.46875 -17.097656 5.660156 -16.597656 6.046875 -15.953125 L 9.921875 -9.328125 L 10.03125 -9.328125 L 12.84375 -14.078125 C 13.382812 -14.972656 13.765625 -15.675781 13.984375 -16.1875 C 14.210938 -16.707031 14.328125 -17.128906 14.328125 -17.453125 C 14.328125 -17.765625 14.203125 -17.984375 13.953125 -18.109375 C 13.710938 -18.234375 13.296875 -18.296875 12.703125 -18.296875 L 12.703125 -19.25 L 18.421875 -19.25 L 18.421875 -18.296875 C 18.078125 -18.296875 17.765625 -18.242188 17.484375 -18.140625 C 17.210938 -18.046875 16.925781 -17.847656 16.625 -17.546875 C 16.320312 -17.242188 15.988281 -16.828125 15.625 -16.296875 C 15.269531 -15.765625 14.835938 -15.066406 14.328125 -14.203125 L 10.46875 -7.703125 L 10.46875 -4.71875 C 10.46875 -3.90625 10.5 -3.253906 10.5625 -2.765625 C 10.625 -2.273438 10.75 -1.894531 10.9375 -1.625 C 11.125 -1.351562 11.394531 -1.171875 11.75 -1.078125 C 12.113281 -0.992188 12.597656 -0.953125 13.203125 -0.953125 L 13.203125 0 L 5.09375 0 L 5.09375 -0.953125 C 5.695312 -0.953125 6.175781 -0.992188 6.53125 -1.078125 C 6.894531 -1.171875 7.171875 -1.347656 7.359375 -1.609375 C 7.554688 -1.867188 7.6875 -2.234375 7.75 -2.703125 C 7.8125 -3.171875 7.84375 -3.785156 7.84375 -4.546875 L 7.84375 -7.59375 Z M 2.84375 -16.15625 "/></g></g></g><g fill="#c1ff72" fill-opacity="1"><g transform="translate(189.852616, 239.857895)"><g><path d="M 17.28125 0 L 1.125 0 L 1.125 -0.953125 C 1.707031 -0.960938 2.175781 -1.007812 2.53125 -1.09375 C 2.894531 -1.175781 3.175781 -1.316406 3.375 -1.515625 C 3.570312 -1.722656 3.703125 -2.007812 3.765625 -2.375 C 3.835938 -2.738281 3.875 -3.210938 3.875 -3.796875 L 3.875 -15.453125 C 3.875 -16.035156 3.84375 -16.503906 3.78125 -16.859375 C 3.726562 -17.222656 3.613281 -17.507812 3.4375 -17.71875 C 3.257812 -17.925781 3.003906 -18.066406 2.671875 -18.140625 C 2.335938 -18.210938 1.90625 -18.265625 1.375 -18.296875 L 1.375 -19.25 L 8.96875 -19.25 L 8.96875 -18.296875 C 8.4375 -18.285156 8.007812 -18.238281 7.6875 -18.15625 C 7.363281 -18.070312 7.113281 -17.921875 6.9375 -17.703125 C 6.757812 -17.484375 6.640625 -17.179688 6.578125 -16.796875 C 6.523438 -16.410156 6.5 -15.90625 6.5 -15.28125 L 6.5 -4.5 C 6.5 -3.800781 6.566406 -3.226562 6.703125 -2.78125 C 6.847656 -2.34375 7.09375 -2.003906 7.4375 -1.765625 C 7.78125 -1.523438 8.234375 -1.359375 8.796875 -1.265625 C 9.367188 -1.171875 10.085938 -1.125 10.953125 -1.125 C 11.898438 -1.125 12.695312 -1.175781 13.34375 -1.28125 C 14 -1.394531 14.546875 -1.585938 14.984375 -1.859375 C 15.429688 -2.140625 15.78125 -2.523438 16.03125 -3.015625 C 16.289062 -3.503906 16.515625 -4.140625 16.703125 -4.921875 L 17.65625 -4.921875 Z M 17.28125 0 "/></g></g></g><g fill="#c1ff72" fill-opacity="1"><g transform="translate(215.999731, 239.857895)"><g><path d="M 12.203125 -6.96875 L 5.53125 -6.96875 C 5.238281 -6.289062 4.992188 -5.6875 4.796875 -5.15625 C 4.597656 -4.632812 4.4375 -4.179688 4.3125 -3.796875 C 4.1875 -3.410156 4.097656 -3.082031 4.046875 -2.8125 C 3.992188 -2.550781 3.96875 -2.335938 3.96875 -2.171875 C 3.96875 -1.703125 4.117188 -1.378906 4.421875 -1.203125 C 4.722656 -1.035156 5.222656 -0.953125 5.921875 -0.953125 L 5.921875 0 L -0.15625 0 L -0.15625 -0.953125 C 0.226562 -1.003906 0.554688 -1.070312 0.828125 -1.15625 C 1.109375 -1.238281 1.351562 -1.351562 1.5625 -1.5 C 1.769531 -1.644531 1.953125 -1.835938 2.109375 -2.078125 C 2.265625 -2.328125 2.421875 -2.625 2.578125 -2.96875 L 9.078125 -19.25 L 10.15625 -19.25 L 15.828125 -5.15625 C 16.210938 -4.21875 16.546875 -3.46875 16.828125 -2.90625 C 17.109375 -2.351562 17.378906 -1.929688 17.640625 -1.640625 C 17.910156 -1.359375 18.195312 -1.175781 18.5 -1.09375 C 18.8125 -1.007812 19.1875 -0.96875 19.625 -0.96875 L 19.625 0 L 11.46875 0 L 11.46875 -0.96875 C 12.351562 -0.96875 12.960938 -1.050781 13.296875 -1.21875 C 13.628906 -1.382812 13.796875 -1.660156 13.796875 -2.046875 C 13.796875 -2.210938 13.785156 -2.363281 13.765625 -2.5 C 13.753906 -2.644531 13.726562 -2.800781 13.6875 -2.96875 C 13.644531 -3.132812 13.585938 -3.320312 13.515625 -3.53125 C 13.441406 -3.738281 13.34375 -3.988281 13.21875 -4.28125 Z M 6.03125 -8.21875 L 11.71875 -8.21875 L 8.953125 -15.59375 Z M 6.03125 -8.21875 "/></g></g></g><g fill="#c1ff72" fill-opacity="1"><g transform="translate(243.271664, 239.857895)"><g><path d="M 16.453125 -14.421875 C 16.453125 -13.085938 16.050781 -11.976562 15.25 -11.09375 C 14.445312 -10.21875 13.171875 -9.628906 11.421875 -9.328125 L 16.953125 -2.671875 C 17.398438 -2.117188 17.894531 -1.722656 18.4375 -1.484375 C 18.976562 -1.242188 19.625 -1.066406 20.375 -0.953125 L 20.375 0 L 15.546875 0 L 9.421875 -7.84375 C 9.203125 -8.132812 9 -8.363281 8.8125 -8.53125 C 8.625 -8.695312 8.425781 -8.820312 8.21875 -8.90625 C 8.007812 -9 7.765625 -9.054688 7.484375 -9.078125 C 7.210938 -9.109375 6.882812 -9.125 6.5 -9.125 L 6.5 -3.921875 C 6.5 -3.304688 6.535156 -2.800781 6.609375 -2.40625 C 6.679688 -2.019531 6.835938 -1.71875 7.078125 -1.5 C 7.328125 -1.28125 7.679688 -1.132812 8.140625 -1.0625 C 8.597656 -0.988281 9.203125 -0.953125 9.953125 -0.953125 L 9.953125 0 L 1.125 0 L 1.125 -0.953125 C 1.707031 -0.960938 2.175781 -1.007812 2.53125 -1.09375 C 2.894531 -1.175781 3.175781 -1.316406 3.375 -1.515625 C 3.570312 -1.722656 3.703125 -2.007812 3.765625 -2.375 C 3.835938 -2.738281 3.875 -3.210938 3.875 -3.796875 L 3.875 -15.453125 C 3.875 -16.035156 3.84375 -16.503906 3.78125 -16.859375 C 3.726562 -17.222656 3.613281 -17.507812 3.4375 -17.71875 C 3.257812 -17.925781 3.003906 -18.066406 2.671875 -18.140625 C 2.335938 -18.210938 1.90625 -18.265625 1.375 -18.296875 L 1.375 -19.25 L 9.21875 -19.25 C 11.519531 -19.25 13.300781 -18.820312 14.5625 -17.96875 C 15.820312 -17.125 16.453125 -15.941406 16.453125 -14.421875 Z M 6.5 -10.375 L 8.28125 -10.375 C 9.945312 -10.375 11.179688 -10.675781 11.984375 -11.28125 C 12.796875 -11.894531 13.203125 -12.898438 13.203125 -14.296875 C 13.203125 -15.648438 12.878906 -16.617188 12.234375 -17.203125 C 11.597656 -17.785156 10.59375 -18.078125 9.21875 -18.078125 L 6.921875 -18.078125 C 6.640625 -18.078125 6.5 -17.9375 6.5 -17.65625 Z M 6.5 -10.375 "/></g></g></g><g fill="#c1ff72" fill-opacity="1"><g transform="translate(270.943545, 239.857895)"><g><path d="M 6.5 -10.578125 C 7.394531 -10.578125 8.144531 -10.628906 8.75 -10.734375 C 9.363281 -10.847656 9.847656 -11.019531 10.203125 -11.25 C 10.566406 -11.476562 10.828125 -11.773438 10.984375 -12.140625 C 11.140625 -12.515625 11.21875 -12.953125 11.21875 -13.453125 L 12.09375 -13.453125 L 12.09375 -6.625 L 11.21875 -6.625 C 11.21875 -7.125 11.144531 -7.554688 11 -7.921875 C 10.863281 -8.285156 10.613281 -8.585938 10.25 -8.828125 C 9.894531 -9.078125 9.414062 -9.265625 8.8125 -9.390625 C 8.207031 -9.515625 7.4375 -9.578125 6.5 -9.578125 L 6.5 -3.921875 C 6.5 -3.367188 6.566406 -2.914062 6.703125 -2.5625 C 6.835938 -2.207031 7.066406 -1.914062 7.390625 -1.6875 C 7.710938 -1.457031 8.140625 -1.296875 8.671875 -1.203125 C 9.203125 -1.117188 9.863281 -1.078125 10.65625 -1.078125 C 11.53125 -1.078125 12.273438 -1.140625 12.890625 -1.265625 C 13.515625 -1.390625 14.035156 -1.597656 14.453125 -1.890625 C 14.867188 -2.191406 15.203125 -2.585938 15.453125 -3.078125 C 15.703125 -3.578125 15.910156 -4.191406 16.078125 -4.921875 L 17.03125 -4.921875 L 16.65625 0 L 1.125 0 L 1.125 -0.953125 C 1.707031 -0.960938 2.175781 -1.007812 2.53125 -1.09375 C 2.894531 -1.175781 3.175781 -1.316406 3.375 -1.515625 C 3.570312 -1.722656 3.703125 -2.007812 3.765625 -2.375 C 3.835938 -2.738281 3.875 -3.210938 3.875 -3.796875 L 3.875 -15.453125 C 3.875 -16.035156 3.84375 -16.503906 3.78125 -16.859375 C 3.726562 -17.222656 3.613281 -17.507812 3.4375 -17.71875 C 3.257812 -17.925781 3.003906 -18.066406 2.671875 -18.140625 C 2.335938 -18.210938 1.90625 -18.265625 1.375 -18.296875 L 1.375 -19.25 L 15.828125 -19.25 L 16.046875 -14.84375 L 15.171875 -14.84375 C 15.078125 -15.507812 14.914062 -16.054688 14.6875 -16.484375 C 14.457031 -16.910156 14.144531 -17.25 13.75 -17.5 C 13.363281 -17.75 12.867188 -17.921875 12.265625 -18.015625 C 11.671875 -18.117188 10.945312 -18.171875 10.09375 -18.171875 L 6.921875 -18.171875 C 6.640625 -18.171875 6.5 -18.03125 6.5 -17.75 Z M 6.5 -10.578125 "/></g></g></g></svg>